<svg width="49" height="49" viewBox="0 0 49 49" fill="none" xmlns="http://www.w3.org/2000/svg">
<path d="M24.5 13.25C24.5 19.4632 19.4632 24.5 13.25 24.5H2V13.25C2 7.03679 7.03679 2 13.25 2C19.4632 2 24.5 7.03679 24.5 13.25Z" fill="#17B7EA"/>
<path d="M24.5 35.75C24.5 29.5368 29.5368 24.5 35.75 24.5H47V35.75C47 41.9632 41.9632 47 35.75 47C29.5368 47 24.5 41.9632 24.5 35.75Z" fill="#17B7EA"/>
<path d="M2 35.75C2 41.9632 7.03679 47 13.25 47H24.5V35.75C24.5 29.5368 19.4632 24.5 13.25 24.5C7.03679 24.5 2 29.5368 2 35.75Z" fill="#17B7EA"/>
<path d="M47 13.25C47 7.03679 41.9632 2 35.75 2H24.5V13.25C24.5 19.4632 29.5368 24.5 35.75 24.5C41.9632 24.5 47 19.4632 47 13.25Z" fill="#17B7EA"/>
</svg>
